<svg height="-363" viewBox="21.9 242 600 158" width="2500" xmlns="http://www.w3.org/2000/svg"><path d="m427.9 274.7c-10.6 0-18.9 3.8-26.5 11.7v-9.9h-20.9v97.1h22.5v-56.3c0-12.9 7.7-21 19.3-21 2.1 0 4 .3 5.3.5l15.6-20.5c-6.1-1.1-11.3-1.6-15.3-1.6zm194 1.8h-25.9l-24 31.7-24-31.7h-25.9l36.6 48.9-36.6 48.2h26.5l23.3-30.7 23.3 30.7h26.7l-36.9-48.1zm-472.4-21.8c-7.7 10.3-9.5 13.7-16.9 13.7h-110.7v131.6h43.4c9.8 0 19.3-4.7 25.4-12.6 7.9-10.5 9-13.7 16.7-13.7h110.9v-131.6h-43.7c-9.8 0-19.3 4.7-25.1 12.6zm34.4 85h-46.3c-10.1 0-19.3 4.2-25.4 12.4-7.9 10.5-9.5 13.7-16.9 13.7h-39.3v-63.1h46.3c10.1 0 19.3-4.7 25.4-12.6 7.9-10.3 10.1-13.4 17.2-13.4h38.9v63zm166.2-32.4c9.8-5.5 16.7-15.3 16.7-28.2 0-18.9-14.6-37.1-35.7-37.1h-63.5v131.6h63.4c23 0 38.9-16.3 38.9-36.8 0-12.1-5.5-22.6-19.8-29.5zm-60.1-44.7h39.2c9.8 0 15.6 9.2 15.6 17.4 0 10-8.7 16.8-16.9 16.8h-37.9zm37.8 90.5h-37.8v-35.8h39.2c10.1 0 18.3 8.7 18.3 17.6-.1 10-10.4 18.2-19.7 18.2zm171.8-7.4c-3.7 5.8-10.9 9.2-18.8 9.2-12.4 0-22.8-8.4-22.8-21.3h67.2c1.1-3.9 1.3-5.8 1.3-9.2 0-29.5-18.3-49.7-45.8-49.7-27 0-46.1 19.2-46.1 50.5 0 30.5 18.3 50.3 46.6 50.3 19.9 0 37.3-9.7 42.3-29.7.2-.1-23.9-.1-23.9-.1zm-18.8-50.5c12.4 0 22 7.9 21.7 19.7h-44.2c0-11.5 10.1-19.7 22.5-19.7z" fill="#212121"/></svg>