<svg xmlns="http://www.w3.org/2000/svg" height="800" width="1200" viewBox="-5.25 -4.838225 45.5 29.02935"><g fill-rule="evenodd" fill="none"><path fill-rule="nonzero" fill="#F2320A" d="M33.3916 4.9568h1.561v9.375h-1.5605zm-3.7622 2.982c-1.8501 0-3.286 1.4906-3.286 3.302 0 1.811 1.4359 3.2471 3.286 3.2471 1.054 0 1.9904-.3903 2.5994-1.2254l-1.0615-.929c-.3356.437-.812.726-1.538.726-.8115 0-1.4988-.5155-1.7252-1.288h4.6294c.0235-.203.0391-.3981.0391-.6168 0-1.717-1.1628-3.2159-2.9428-3.2159zm-1.7015 2.607c.2265-.7339.8351-1.249 1.7015-1.249.8354 0 1.374.5777 1.4518 1.249zm-3.4349-4.598h-1.561v8.3918h1.561v-4.879h1.5145V8.0871H24.493zM22.2295 8.087h-1.85l-1.4676 1.8887-1.4205-1.8887h-1.8736l2.2948 2.9894-2.4978 3.2632h1.8736l1.561-2.0918 1.5379 2.0918h1.8813l-2.4512-3.232z"/><path fill-rule="nonzero" fill="#F2320A" d="M12.4876 7.9388c-1.8035 0-3.302 1.4597-3.302 3.2785 0 1.811 1.4989 3.2785 3.302 3.2785 1.8035 0 3.302-1.4597 3.302-3.2785 0-1.8188-1.4989-3.2785-3.302-3.2785zm0 5.1364c-1.0146 0-1.8035-.812-1.8035-1.8657 0-1.0541.7889-1.8657 1.8035-1.8657 1.0146 0 1.8035.812 1.8035 1.8653 0 1.054-.789 1.866-1.8035 1.866zm-5.0347-5.652c0-.741.234-1.085.8977-1.085h.8742V4.9647h-.9916c-1.3732 0-2.349.6169-2.349 2.4665v.6642H4.783V9.469h1.101v4.879h1.5614V9.4685h1.514V8.0953H7.4452V7.424h.0078z"/><path d="M35 19.353H0V0h35z"/></g></svg>