<svg xmlns="http://www.w3.org/2000/svg" height="800" width="1200" viewBox="-92.08305 -39.9645 798.0531 239.787"><path fill="#6f02b5" d="M564.69 60.414h-21.733c-6.938 0-12.584-5.648-12.584-12.588 0-7.579 7.02-12.09 13.953-12.638 8.536-.677 31.928-.192 40.22.047 9.493.347 17.645-7.292 17.923-16.91.28-9.62-7.292-17.642-16.908-17.923-3.238-.095-32.022-.883-43.968.046-26.26 2.063-46.067 22.43-46.067 47.378 0 26.154 21.277 47.434 47.43 47.434h21.734c7.779 0 14.35 6.718 14.35 14.668 0 9.124-7.869 13.807-15.671 14.4-10.015.762-40.054.23-50.778-.046-9.624-.235-17.613 7.362-17.858 16.98-.24 9.62 7.358 17.613 16.98 17.859 2.637.064 18.52.45 33.19.45 8.295 0 16.2-.124 21.106-.496 27.742-2.11 47.878-22.776 47.878-49.147 0-27.302-22.07-49.514-49.197-49.514m-160.51 64.905c-24.927 0-45.206-20.28-45.206-45.207 0-24.926 20.279-45.205 45.205-45.205 24.927 0 45.206 20.279 45.206 45.205 0 24.927-20.28 45.207-45.206 45.207zm0-124.95c-44.042 0-79.745 35.702-79.745 79.743 0 44.042 35.703 79.746 79.744 79.746 44.043 0 79.744-35.704 79.744-79.746 0-44.04-35.701-79.744-79.744-79.744M197.927 127.776c-12.796 0-23.208-10.41-23.208-23.208 0-12.797 10.412-23.206 23.208-23.206 12.798 0 23.208 10.41 23.208 23.206 0 12.798-10.41 23.208-23.208 23.208zm0-78.496c-30.534 0-55.288 24.754-55.288 55.288 0 30.535 24.754 55.29 55.288 55.29 9.515 0 18.468-2.406 26.286-6.639 2.905 4.016 7.617 6.64 12.952 6.64 8.83 0 15.989-7.16 15.989-15.99v-36.823c.036-.822.063-1.647.063-2.478 0-30.534-24.754-55.288-55.29-55.288m-94.456-.038c13.496 0 24.436-10.94 24.436-24.436S116.967.368 103.471.368 79.034 11.31 79.034 24.806c0 13.496 10.941 24.436 24.437 24.436m-23.676 7.873c-5.75-8.21-17.066-10.207-25.277-4.456-8.211 5.748-10.207 17.065-4.458 25.276l51.943 74.181c5.75 8.211 17.066 10.206 25.278 4.458 8.21-5.75 10.206-17.067 4.457-25.277L79.795 57.115M18.51.368C8.287.368 0 8.655 0 18.878v122.47c0 10.222 8.287 18.51 18.51 18.51 10.224 0 18.51-8.288 18.51-18.51V18.877c0-10.223-8.286-18.51-18.51-18.51m270.1 48.913c-10.17 0-18.412 8.243-18.412 18.412v73.752c0 10.17 8.242 18.414 18.412 18.414 10.168 0 18.41-8.244 18.41-18.414V67.692c0-10.169-8.242-18.412-18.41-18.412"/></svg>