<svg xmlns="http://www.w3.org/2000/svg" height="800" width="1200" viewBox="-48.806895 -21.935475 422.99309 131.61285"><path d="M83.2961 77.431a50.8 50.8 0 006.1675-8.71l-10.4379-5.1964a31.9564 31.9564 0 01-5.4715 6.8553c-2.9105 2.7014-6.006 4.2757-9.1573 4.6779-6.0854.7779-10.3372-1.1033-16.539-5.0827-6.5168-4.1804-13.9013-8.919-24.3814-7.5803-6.35.815-12.1867 4.1434-17.3144 9.8928A50.7709 50.7709 0 000 80.9976l10.4352 5.1965a32.1998 32.1998 0 015.461-6.8607c2.8786-2.6643 5.9584-4.2333 9.1598-4.6328a21.037 21.037 0 012.6459-.1746c4.7995 0 8.6545 1.852 13.8959 5.2149 6.0854 3.9079 13.6684 8.771 24.3866 7.4083 6.477-.836 12.3032-4.1037 17.3117-9.7181zm0-31.0832a50.8 50.8 0 006.1675-8.71l-10.4379-5.1965a32.0146 32.0146 0 01-5.4715 6.858c-2.9105 2.7014-6.006 4.2757-9.1573 4.6779-6.0854.7752-10.3372-1.1033-16.539-5.0827-6.5168-4.1804-13.9013-8.919-24.3814-7.5803-6.35.815-12.1867 4.1407-17.3144 9.8928A50.6677 50.6677 0 000 49.9144l10.4352 5.1964a32.2792 32.2792 0 015.461-6.8632c2.8892-2.6618 5.9584-4.2202 9.1598-4.6303a21.037 21.037 0 012.6459-.1746c4.7995 0 8.6545 1.8521 13.8959 5.215 6.0854 3.9079 13.6684 8.7709 24.3866 7.4083 6.477-.8361 12.3032-4.1037 17.3117-9.7182zm0-31.0832a50.8 50.8 0 006.1675-8.71L79.0257 1.358a32.0146 32.0146 0 01-5.4715 6.858c-2.9105 2.7014-6.006 4.2757-9.1573 4.6778-6.0854.7753-10.3372-1.1033-16.539-5.0826C41.349 3.6309 33.9645-1.1078 23.4843.231c-6.3606.8281-12.1867 4.1407-17.3143 9.8927A50.6677 50.6677 0 000 18.8312l10.4352 5.1964a32.2792 32.2792 0 015.461-6.8633c2.8892-2.6617 5.9584-4.2201 9.1598-4.6302a21.037 21.037 0 012.6459-.1746c4.7995 0 8.6545 1.852 13.8959 5.2149 6.0854 3.9079 13.663 8.7683 24.3866 7.4083 6.477-.836 12.3032-4.1036 17.3117-9.7181zm36.4437-13.8218v84.9735h-12.0544V1.4428zm12.7238 24.458v60.5155h12.065V25.9008zm113.4666 13.9727c4.9662-3.339 10.8109-4.2968 16.6688-3.3629V25.9802a33.1338 33.1338 0 00-4.08-.2646c-8.2734 0-14.8351 2.5295-17.9916 6.9374l-1.4817 2.0585V25.832h-12.0755v60.5895h12.0041V65.3661c0-3.855-.0423-7.0961 0-10.9511.0767-6.3606 2.2199-11.3533 6.956-14.5415zm79.449 46.5428V25.8268h-11.2209v6.6542l-1.3494-1.1615c-5.2572-4.5244-11.6258-6.8183-18.9283-6.8183-5.4371 0-10.5568 1.323-14.8166 3.8576-9.7896 5.7865-15.6104 16.1634-15.6104 27.7601 0 11.5967 5.789 21.8916 15.486 27.6278 4.2069 2.4977 9.8901 3.99 15.203 3.99 7.1226 0 13.7583-2.4184 18.6505-6.8078l1.3626-1.2197v6.7018zM309.3695 71.269a19.513 19.513 0 01-13.5652 6.178c-.2435 0-.4816.0133-.717.0133-12.0386 0-21.4683-9.3715-21.4683-21.336 0-5.6303 2.0214-10.9167 5.6938-14.8855 3.8497-4.1592 9.218-6.4505 15.113-6.4505.2646 0 .5556 0 .836.0132a19.9999 19.9999 0 0113.9568 6.2918 20.6534 20.6534 0 015.6939 14.2875v1.9685a20.2168 20.2168 0 01-5.543 13.9197zm-120.621 16.473c5.4372 0 10.557-1.323 14.8167-3.8576 9.7896-5.7865 15.6104-16.1634 15.6104-27.7601 0-11.5967-5.789-21.8916-15.486-27.6278-4.2069-2.4977-9.8928-3.99-15.2056-3.99-7.12 0-13.7425 2.4184-18.6505 6.8105l-1.3626 1.217V1.4428h-11.2183v84.9735h11.2183v-6.6542l1.352 1.1615c5.2573 4.5376 11.6258 6.8183 18.9257 6.8183zM167.73 56.8862v-1.9685a20.23 20.23 0 015.5297-13.9277 19.521 19.521 0 0113.5811-6.178c.2408 0 .479-.0132.717-.0132 12.0386 0 21.4683 9.3715 21.4683 21.336 0 5.6303-2.024 10.9167-5.6965 14.8854-3.8496 4.1593-9.2154 6.4506-15.1103 6.4506-.2646 0-.5583 0-.836-.0133a20.0051 20.0051 0 01-13.9595-6.2917 20.6666 20.6666 0 01-5.6938-14.2796zM144.5286 1.4428h-12.065v12.0517h12.065z" fill="#42318c" color="#42318c"/></svg>